<?xml version="1.0" encoding="UTF-8"?>
<svg viewBox="0 0 16 16" version="1.1" xmlns="http://www.w3.org/2000/svg" xmlns:xlink="http://www.w3.org/1999/xlink">
    <!-- Generator: Sketch 59.1 (86144) - https://sketch.com -->
    <title>Download</title>
    <desc>Created with Sketch.</desc>
    <defs>
        <path d="M13.4444444,8.77777778 L13.4444444,12.6666667 C13.4444444,13.0944444 13.0944444,13.4444444 12.6666667,13.4444444 L3.33333333,13.4444444 C2.90555556,13.4444444 2.55555556,13.0944444 2.55555556,12.6666667 L2.55555556,8.77777778 C2.55555556,8.35 2.20555556,8 1.77777778,8 C1.35,8 1,8.35 1,8.77777778 L1,13.4444444 C1,14.3 1.7,15 2.55555556,15 L13.4444444,15 C14.3,15 15,14.3 15,13.4444444 L15,8.77777778 C15,8.35 14.65,8 14.2222222,8 C13.7944444,8 13.4444444,8.35 13.4444444,8.77777778 Z M8.77777778,8.52111111 L10.24,7.05888889 C10.5433333,6.75555556 11.0333333,6.75555556 11.3366667,7.05888889 C11.64,7.36222222 11.64,7.85222222 11.3366667,8.15555556 L8.54444444,10.9477778 C8.24111111,11.2511111 7.75111111,11.2511111 7.44777778,10.9477778 L4.65555556,8.15555556 C4.50991459,8.01024215 4.42806675,7.81295817 4.42806675,7.60722222 C4.42806675,7.40148628 4.50991459,7.2042023 4.65555556,7.05888889 C4.95888889,6.75555556 5.44888889,6.75555556 5.75222222,7.05888889 L7.22222222,8.52111111 L7.22222222,1.77777778 C7.22222222,1.35 7.57222222,1 8,1 C8.42777778,1 8.77777778,1.35 8.77777778,1.77777778 L8.77777778,8.52111111 Z" id="path-1"></path>
    </defs>
    <g id="Download" stroke="none" stroke-width="1" fill="none" fill-rule="evenodd">
        <mask id="mask-2" fill="white">
            <use xlink:href="#path-1"></use>
        </mask>
        <use id="icon/content/save_alt_24px" fill="#7C8BA2" fill-rule="nonzero" xlink:href="#path-1"></use>
    </g>
</svg>