<svg width="38" height="38" viewBox="0 0 38 38" fill="none" xmlns="http://www.w3.org/2000/svg">
<path d="M1 19C1 9.05888 9.05888 1 19 1C28.9411 1 37 9.05888 37 19C37 28.9411 28.9411 37 19 37C9.05888 37 1 28.9411 1 19Z" fill="#EBEFF4"/>
<path fill-rule="evenodd" clip-rule="evenodd" d="M19 38C8.50659 38 0 29.4934 0 19C0 8.50659 8.50659 0 19 0C29.4934 0 38 8.50659 38 19C38 29.4934 29.4934 38 19 38ZM19 1C9.05888 1 1 9.05888 1 19C1 28.9411 9.05888 37 19 37C28.9411 37 37 28.9411 37 19C37 9.05888 28.9411 1 19 1Z" fill="#E5EAEF"/>
<mask id="mask0" mask-type="alpha" maskUnits="userSpaceOnUse" x="1" y="1" width="36" height="36">
<rect x="1" y="1" width="36" height="36" rx="18" fill="#DFE6ED"/>
</mask>
<g mask="url(#mask0)">
<path fill-rule="evenodd" clip-rule="evenodd" d="M19 9C16.2386 9 14 11.2386 14 14C14 16.7614 16.2386 19 19 19C21.7614 19 24 16.7614 24 14C24 11.2386 21.7614 9 19 9ZM19 22C11.268 22 5 28.268 5 36V44C5 51.732 11.268 58 19 58C26.732 58 33 51.732 33 44V36C33 28.268 26.732 22 19 22Z" fill="white"/>
</g>
</svg>
