<svg xmlns="http://www.w3.org/2000/svg" xmlns:xlink="http://www.w3.org/1999/xlink" width="124" height="103" viewBox="0 0 124 103"><defs><filter id="a" x="0" y="0" width="124" height="103" filterUnits="userSpaceOnUse"><feOffset dy="3" input="SourceAlpha"/><feGaussianBlur stdDeviation="3" result="b"/><feFlood flood-opacity="0.161"/><feComposite operator="in" in2="b"/><feComposite in="SourceGraphic"/></filter></defs><g transform="translate(-1278.909 -1830)"><g transform="translate(761.909 3)"><g transform="matrix(1, 0, 0, 1, 517, 1827)" filter="url(#a)"><rect width="106" height="85" rx="11" transform="translate(9 6)" fill="#fff"/></g><rect width="44" height="8" rx="4" transform="translate(540.091 1877)" fill="#8097ff" opacity="0.1"/><rect width="54.333" height="8" rx="4" transform="translate(540 1895)" fill="#8097ff" opacity="0.1"/></g><g transform="translate(11)"><circle cx="6" cy="6" r="6" transform="translate(1307 1841)" fill="#f1f1f1"/><circle cx="11" cy="11" r="11" transform="translate(1302 1848)" fill="#f1f1f1"/><circle cx="6" cy="6" r="6" transform="translate(1307 1853)" fill="#fff"/></g><circle cx="2" cy="2" r="2" transform="translate(1322 1845)" fill="#fff"/><circle cx="6" cy="6" r="6" transform="translate(1307 1841)" fill="#0634ff"/><circle cx="11" cy="11" r="11" transform="translate(1302 1848)" fill="#0634ff"/><circle cx="6" cy="6" r="6" transform="translate(1307 1853)" fill="#fff"/><circle cx="2" cy="2" r="2" transform="translate(1311 1845)" fill="#fff"/></g></svg>