<svg xmlns="http://www.w3.org/2000/svg" xmlns:xlink="http://www.w3.org/1999/xlink" width="760" height="667.4" viewBox="0 0 760 667.4"><defs><filter id="a" x="0" y="0" width="760" height="667.4" filterUnits="userSpaceOnUse"><feOffset dy="50" input="SourceAlpha"/><feGaussianBlur stdDeviation="49.5" result="b"/><feFlood flood-color="#1f305d" flood-opacity="0.259"/><feComposite operator="in" in2="b"/><feComposite in="SourceGraphic"/></filter></defs><g transform="translate(148.5 46.5)"><g transform="matrix(1, 0, 0, 1, -148.5, -46.5)" filter="url(#a)"><rect width="463" height="370.4" rx="8" transform="translate(148.5 98.5)" fill="#fff"/></g><circle cx="31.749" cy="31.749" r="31.749" transform="translate(31.749 83.749)" fill="#4d6dff" opacity="0.79"/><path d="M0,.5H399.5" transform="translate(31.749 320.701)" fill="none" stroke="#e6ebf0" stroke-linecap="square" stroke-miterlimit="10" stroke-width="1"/><rect width="124.349" height="14.551" rx="7" transform="translate(120.38 94.331)" fill="#0634ff"/><rect width="82.017" height="14.551" rx="7" transform="translate(120.38 119.466)" fill="#8097ff" opacity="0.3"/><rect width="387.597" height="14.551" rx="7" transform="translate(31.749 197.514)" fill="#8097ff" opacity="0.2"/><rect width="300.289" height="14.551" rx="7" transform="translate(31.749 225.294)" fill="#8097ff" opacity="0.2"/><rect width="230.177" height="14.551" rx="7" transform="translate(31.749 253.074)" fill="#8097ff" opacity="0.2"/><g transform="translate(347.911 99.623)"><rect width="83.34" height="31.749" rx="15.874" fill="#8097ff" opacity="0.3"/><rect width="39.066" height="5.291" rx="2.646" transform="translate(22.137 13.229)" fill="#fff" opacity="0.3"/></g><g transform="translate(31.749 356.257)"><rect width="83.34" height="31.749" rx="15.874" transform="translate(0 0)" fill="#0634ff"/><rect width="39.066" height="5.291" rx="2.646" transform="translate(22.137 13.229)" fill="#fff" opacity="0.3"/></g><g transform="translate(190.491 356.257)"><rect width="83.34" height="31.749" rx="15.874" transform="translate(0 0)" fill="#0634ff"/><rect width="39.066" height="5.291" rx="2.646" transform="translate(22.137 13.229)" fill="#fff" opacity="0.3"/></g><g transform="translate(347.912 356.257)"><rect width="83.34" height="31.749" rx="15.874" transform="translate(0 0)" fill="#0634ff"/><rect width="39.066" height="5.291" rx="2.646" transform="translate(22.137 13.229)" fill="#fff" opacity="0.3"/></g></g></svg>