<svg xmlns="http://www.w3.org/2000/svg" xmlns:xlink="http://www.w3.org/1999/xlink" width="784" height="881.4" viewBox="0 0 784 881.4"><defs><filter id="a" x="0" y="0" width="784" height="881.4" filterUnits="userSpaceOnUse"><feOffset dy="100" input="SourceAlpha"/><feGaussianBlur stdDeviation="49.5" result="b"/><feFlood flood-color="#1f485d" flood-opacity="0.259"/><feComposite operator="in" in2="b"/><feComposite in="SourceGraphic"/></filter><clipPath id="c"><circle cx="33.394" cy="33.394" r="33.394" fill="#bcd0e7"/></clipPath><clipPath id="e"><circle cx="33.394" cy="33.394" r="33.394" fill="#ffd666"/></clipPath><clipPath id="f"><circle cx="33.394" cy="33.394" r="33.394" fill="#8097ff"/></clipPath></defs><g transform="translate(148.5 -3.5)"><g transform="matrix(1, 0, 0, 1, -148.5, 3.5)" filter="url(#a)"><rect width="487" height="584.4" rx="8" transform="translate(148.5 48.5)" fill="#fff"/></g><path d="M0,.5,420.211.5" transform="translate(33.394 244.212)" fill="none" stroke="#e6ebf0" stroke-linecap="square" stroke-miterlimit="10" stroke-width="1"/><path d="M0,.5,420.211.5" transform="translate(33.394 366.658)" fill="none" stroke="#e6ebf0" stroke-linecap="square" stroke-miterlimit="10" stroke-width="1"/><path d="M0,.5,420.211.5" transform="translate(33.394 489.104)" fill="none" stroke="#e6ebf0" stroke-linecap="square" stroke-miterlimit="10" stroke-width="1"/><text transform="translate(33.394 195.097)" fill="#42505c" font-size="27" font-family="SegoeUI, Segoe UI"><tspan x="0" y="0">1.</tspan></text><text transform="translate(33.394 317.543)" fill="#42505c" font-size="27" font-family="SegoeUI, Segoe UI"><tspan x="0" y="0">2.</tspan></text><text transform="translate(33.394 562.434)" fill="#42505c" font-size="27" font-family="SegoeUI, Segoe UI"><tspan x="0" y="0">4.</tspan></text><text transform="translate(33.394 439.989)" fill="#42505c" font-size="27" font-family="SegoeUI, Segoe UI"><tspan x="0" y="0">3.</tspan></text><g transform="translate(72.354 150.791)"><circle cx="33.394" cy="33.394" r="33.394" fill="#8097ff"/></g><g transform="translate(72.354 273.237)"><circle cx="33.394" cy="33.394" r="33.394" fill="#ffd666"/></g><g transform="translate(72.354 395.683)"><circle cx="33.394" cy="33.394" r="33.394" fill="#ffd666"/></g><g transform="translate(72.354 518.129)"><circle cx="33.394" cy="33.394" r="33.394" fill="#8097ff"/></g><rect width="148.883" height="19.48" rx="7" transform="translate(32.003 88.177)" fill="#4d6dff"/><rect width="148.883" height="13.914" rx="6.957" transform="translate(175.32 157.749)" fill="#0634ff"/><rect width="148.883" height="13.914" rx="6.957" transform="translate(175.32 284.369)" fill="#0634ff"/><rect width="148.883" height="13.914" rx="6.957" transform="translate(175.32 406.814)" fill="#0634ff"/><rect width="148.883" height="13.914" rx="6.957" transform="translate(175.32 530.651)" fill="#0634ff"/><rect width="90.443" height="13.914" rx="6.957" transform="translate(175.32 185.577)" fill="#8097ff" opacity="0.47"/><rect width="90.443" height="13.914" rx="6.957" transform="translate(175.32 312.197)" fill="#8097ff" opacity="0.47"/><rect width="90.443" height="13.914" rx="6.957" transform="translate(175.32 434.643)" fill="#8097ff" opacity="0.47"/><rect width="90.443" height="13.914" rx="6.957" transform="translate(175.32 558.48)" fill="#8097ff" opacity="0.47"/><rect width="54.266" height="13.914" rx="6.957" transform="translate(339.509 90.96)" fill="#8097ff" opacity="0.49"/><rect width="54.266" height="13.914" rx="6.957" transform="translate(406.297 90.96)" fill="#8097ff"/></g></svg>