<svg xmlns="http://www.w3.org/2000/svg" xmlns:xlink="http://www.w3.org/1999/xlink" width="1195.834" height="656.666" viewBox="0 0 1195.834 656.666"><defs><filter id="a" x="0" y="0" width="1195.834" height="656.666" filterUnits="userSpaceOnUse"><feOffset dy="100" input="SourceAlpha"/><feGaussianBlur stdDeviation="49.5" result="b"/><feFlood flood-color="#1f485d" flood-opacity="0.2"/><feComposite operator="in" in2="b"/><feComposite in="SourceGraphic"/></filter><linearGradient id="c" x1="0.5" y1="1" x2="0.5" gradientUnits="objectBoundingBox"><stop offset="0" stop-color="#fff" stop-opacity="0"/><stop offset="1" stop-color="#8097ff"/></linearGradient><filter id="d" x="671.408" y="126.53" width="89.783" height="51.751" filterUnits="userSpaceOnUse"><feOffset dy="1" input="SourceAlpha"/><feGaussianBlur stdDeviation="1.5" result="e"/><feFlood flood-opacity="0.149"/><feComposite operator="in" in2="e"/><feComposite in="SourceGraphic"/></filter></defs><g transform="translate(17.734 -148.557) rotate(4)"><g transform="translate(165 186)"><g transform="matrix(1, -0.07, 0.07, 1, -172.33, -36.57)" filter="url(#a)"><rect width="880.121" height="299" rx="8" transform="translate(169.36 48.5) rotate(4)" fill="#fff"/></g><g transform="translate(28.935 178.435)"><rect width="142.266" height="38.581" rx="19" fill="#8097ff" opacity="0.3"/></g><g transform="translate(258.008 38.581)"><rect width="36.169" height="192.903" transform="translate(50.637)" fill="#f6f8fa"/><rect width="36.169" height="192.903" transform="translate(231.484)" fill="#f6f8fa"/><rect width="36.169" height="192.903" transform="translate(412.331)" fill="#f6f8fa"/><rect width="36.169" height="192.903" transform="translate(141.06)" fill="#f6f8fa"/><rect width="36.169" height="192.903" transform="translate(321.907)" fill="#f6f8fa"/><rect width="36.169" height="192.903" transform="translate(501.548)" fill="#f6f8fa"/><rect width="36.169" height="192.903" transform="translate(96.452)" fill="#f6f8fa"/><rect width="36.169" height="192.903" transform="translate(276.093)" fill="#f6f8fa"/><rect width="36.169" height="192.903" transform="translate(456.94)" fill="#f6f8fa"/><rect width="36.169" height="192.903" transform="translate(186.875)" fill="#f6f8fa"/><rect width="36.169" height="192.903" transform="translate(366.516)" fill="#f6f8fa"/><rect width="36.169" height="192.903" transform="translate(547.363)" fill="#f6f8fa"/><path d="M499.137,143.472H0V78.8L47.053,17.07,93.177,45.625l42.765-27.711,44.983,121.563,45.73-128.489,43.987,70.977L318.954,34.6,362.113,52.72l43.524-34.806L452.618,34.6,499.137,0" transform="translate(67.516 48.226)" opacity="0.2" fill="url(#c)"/><path d="M0,78.9,46.359,15.3l46.025,30.61,43.625-29.133,44.45,121.873L226.271,9.321l44.278,73.124L318.613,33.66,361.68,53.08l43.932-36.3L452.581,33.66,497.931,0" transform="translate(68.722 49.431)" fill="none" stroke="#8097ff" stroke-linecap="round" stroke-miterlimit="10" stroke-width="1.65"/><circle cx="5.425" cy="5.425" r="5.425" transform="translate(289.355 51.843)" fill="#fff" stroke="#4360df" stroke-miterlimit="10" stroke-width="1.65"/><text transform="translate(69.871 215.343)" fill="#79828b" font-size="13" font-family="Poppins-Regular, Poppins"><tspan x="-12.415" y="0">Mar</tspan></text><text transform="translate(32.617 171.94)" fill="#79828b" font-size="13" font-family="Poppins-Regular, Poppins"><tspan x="-28.574" y="0">$100</tspan></text><text transform="translate(32.617 124.919)" fill="#79828b" font-size="13" font-family="Poppins-Regular, Poppins"><tspan x="-28.574" y="0">$150</tspan></text><text transform="translate(33 79.105)" fill="#79828b" font-size="13" font-family="Poppins-Regular, Poppins"><tspan x="-31.889" y="0">$200</tspan></text><text transform="translate(33 32.085)" fill="#79828b" font-size="13" font-family="Poppins-Regular, Poppins"><tspan x="-31.889" y="0">$250</tspan></text><text transform="translate(159.486 214.343)" fill="#79828b" font-size="12" font-family="Poppins-Regular, Poppins"><tspan x="-12.6" y="0">May</tspan></text><text transform="translate(248.923 215.343)" fill="#79828b" font-size="13" font-family="Poppins-Regular, Poppins"><tspan x="-9.204" y="0">Jul</tspan></text><text transform="translate(338.73 215.343)" fill="#79828b" font-size="13" font-family="Poppins-Regular, Poppins"><tspan x="-12.24" y="0">Sep</tspan></text><text transform="translate(518.974 215.343)" fill="#79828b" font-size="13" font-family="Poppins-Regular, Poppins"><tspan x="-11.999" y="0">Jan</tspan></text><text transform="translate(430.359 215.343)" fill="#79828b" font-size="13" font-family="Poppins-Regular, Poppins"><tspan x="-12.376" y="0">Nov</tspan></text><g transform="matrix(1, -0.07, 0.07, 1, -430.34, -75.15)" filter="url(#d)"><g transform="translate(678.52 130.03) rotate(4)" fill="#fff" stroke="#6271d2" stroke-miterlimit="10" stroke-width="1.1"><rect width="78.367" height="37.375" rx="15.5" stroke="none"/><rect x="0.55" y="0.55" width="77.267" height="36.275" rx="14.95" fill="none"/></g></g><text transform="translate(293.462 34.262)" fill="#42505c" font-size="19" font-family="Poppins-Medium, Poppins" font-weight="500" letter-spacing="0.042em"><tspan x="-24.424" y="0">$226</tspan></text></g></g><rect width="167.585" height="16.879" rx="7" transform="translate(195.141 219.758)" fill="#0634ff"/><rect width="169.996" height="16.879" rx="8" transform="translate(195.141 280.04)" fill="#8097ff" opacity="0.3"/><rect width="54.254" height="16.879" rx="8" transform="translate(195.141 313.798)" fill="#8097ff" opacity="0.3"/><path d="M5,0H109.536a5,5,0,0,1,5,5v.851a5,5,0,0,1-5,5H5a5,5,0,0,1-5-5V5A5,5,0,0,1,5,0Z" transform="translate(195.141 424.718)" fill="#8097ff" opacity="0.3"/><rect width="98.863" height="10.851" rx="5.425" transform="translate(208.403 378.903)" fill="#fff" opacity="0.44"/></g></svg>