<?xml version="1.0" encoding="UTF-8"?>
<svg width="12px" height="12px" viewBox="0 0 12 12" version="1.1" xmlns="http://www.w3.org/2000/svg" xmlns:xlink="http://www.w3.org/1999/xlink">
    <!-- Generator: Sketch 59.1 (86144) - https://sketch.com -->
    <title>Combined Shape</title>
    <desc>Created with Sketch.</desc>
    <g id="Browse" stroke="none" stroke-width="1" fill="none" fill-rule="evenodd">
        <g id="Browse_022_03-Copy" transform="translate(-320.000000, -411.000000)" fill="#4D5B83" fill-rule="nonzero">
            <g id="Group" transform="translate(0.000000, 383.000000)">
                <g id="Group-5" transform="translate(28.000000, 28.000000)">
                    <path d="M303.285549,0.122580394 C303.44899,-0.0408601314 303.713979,-0.0408601314 303.87742,0.122580394 C304.04086,0.28602092 304.04086,0.551010369 303.87742,0.714450894 L303.87742,0.714450894 L298.592,6 L303.87742,11.2855491 C304.04086,11.4489896 304.04086,11.7139791 303.87742,11.8774196 C303.713979,12.0408601 303.44899,12.0408601 303.285549,11.8774196 L298,6.592 L292.714451,11.8774196 C292.57144,12.0204301 292.350682,12.0383064 292.188234,11.9310485 L292.12258,11.8774196 C291.95914,11.7139791 291.95914,11.4489896 292.12258,11.2855491 L292.12258,11.2855491 L297.408,6 L292.12258,0.714450894 C291.95914,0.551010369 291.95914,0.28602092 292.12258,0.122580394 C292.286021,-0.0408601314 292.55101,-0.0408601314 292.714451,0.122580394 L298,5.408 Z" id="Combined-Shape"></path>
                </g>
            </g>
        </g>
    </g>
</svg>