<svg xmlns="http://www.w3.org/2000/svg" xmlns:xlink="http://www.w3.org/1999/xlink" width="124" height="103" viewBox="0 0 124 103"><defs><filter id="a" x="0" y="0" width="124" height="103" filterUnits="userSpaceOnUse"><feOffset dy="3" input="SourceAlpha"/><feGaussianBlur stdDeviation="3" result="b"/><feFlood flood-opacity="0.161"/><feComposite operator="in" in2="b"/><feComposite in="SourceGraphic"/></filter></defs><g transform="translate(-517 -1827)"><g transform="matrix(1, 0, 0, 1, 517, 1827)" filter="url(#a)"><rect width="106" height="85" rx="11" transform="translate(9 6)" fill="#fff"/></g><rect width="36.891" height="7.5" rx="3.75" transform="translate(535 1849)" fill="#0634ff"/><rect width="36.891" height="7.5" rx="3.75" transform="translate(535 1865)" fill="#8097ff" opacity="0.18"/><path d="M3.75,0H33.141a3.75,3.75,0,0,1,0,7.5H3.75a3.75,3.75,0,0,1,0-7.5Z" transform="translate(586 1865)" fill="#8097ff" opacity="0.18"/><rect width="36.891" height="7.5" rx="3.75" transform="translate(535 1881)" fill="#8097ff" opacity="0.18"/><rect width="36.891" height="7.5" rx="3.75" transform="translate(586 1881)" fill="#8097ff" opacity="0.18"/><rect width="36.891" height="7.5" rx="3.75" transform="translate(535 1897)" fill="#8097ff" opacity="0.18"/><rect width="36.891" height="7.5" rx="3.75" transform="translate(586 1897)" fill="#8097ff" opacity="0.18"/><rect width="36.891" height="7.5" rx="3.75" transform="translate(586 1849)" fill="#0634ff"/></g></svg>