<svg xmlns="http://www.w3.org/2000/svg" xmlns:xlink="http://www.w3.org/1999/xlink" width="855" height="695.801" viewBox="0 0 855 695.801">
    <defs>
        <filter id="a" x="0" y="0" width="855" height="695.801" filterUnits="userSpaceOnUse">
            <feOffset dy="100" input="SourceAlpha" />
            <feGaussianBlur stdDeviation="49.5" result="b" />
            <feFlood flood-color="#1f485d" flood-opacity="0.2" />
            <feComposite operator="in" in2="b" />
            <feComposite in="SourceGraphic" />
        </filter>
    </defs>
    <g transform="translate(148.5 48.5)">
        <g transform="matrix(1, 0, 0, 1, -148.5, -48.5)" filter="url(#a)">
            <rect width="558" height="398.801" rx="8" transform="translate(148.5 48.5)" fill="#fff" />
        </g>
        <path d="M0,.5,480.813.5" transform="translate(38.594 222.217)" fill="none" stroke="#e6ebf0" stroke-linecap="square" stroke-miterlimit="10" stroke-width="1" />
        <g transform="translate(38.594 305.533)">
            <rect width="101.308" height="51.458" rx="16" fill="#79828b" opacity="0.1" />
            <text transform="translate(19.297 32.432)" fill="#8d99a4" font-size="25" font-family="RobotoMono-Medium, Roboto Mono" font-weight="500">
                <tspan x="0" y="0">ruby</tspan>
            </text>
        </g>
        <g transform="translate(159.199 305.533)">
            <rect width="147.942" height="51.458" rx="16" fill="#79828b" opacity="0.1" />
            <text transform="translate(19.297 32.432)" fill="#8d99a4" font-size="25" font-family="RobotoMono-Medium, Roboto Mono" font-weight="500">
                <tspan x="0" y="0">clojure</tspan>
            </text>
        </g>
        <g transform="translate(326.438 305.533)">
            <rect width="101.308" height="51.458" rx="16" fill="#79828b" opacity="0.1" />
            <text transform="translate(19.297 32.432)" fill="#8d99a4" font-size="25" font-family="RobotoMono-Medium, Roboto Mono" font-weight="500">
                <tspan x="0" y="0">java</tspan>
            </text>
        </g>
        <text transform="translate(38.594 59.986)" fill="#79828b" font-size="21" font-family="Poppins-Medium, Poppins" font-weight="500">
            <tspan x="0" y="0" letter-spacing="0.107em">RAN</tspan>
            <tspan y="0">K</tspan>
        </text>
        <text transform="translate(38.594 277.075)" fill="#79828b" font-size="21" font-family="Poppins-Medium, Poppins" font-weight="500">
            <tspan x="0" y="0" letter-spacing="0.107em">TOP CATEGORIE</tspan>
            <tspan y="0">S</tspan>
        </text>
        <text transform="translate(332.87 59.986)" fill="#79828b" font-size="21" font-family="Poppins-Medium, Poppins" font-weight="500">
            <tspan x="0" y="0" letter-spacing="0.107em">PROJECT</tspan>
            <tspan y="0">S</tspan>
        </text>
        <text transform="translate(102.916 140.444)" fill="#42505c" font-size="47" font-family="Poppins-Medium, Poppins" font-weight="500" letter-spacing="0.025em">
            <tspan x="0" y="0">607</tspan>
        </text>
        <text transform="translate(397.193 140.444)" fill="#42505c" font-size="47" font-family="Poppins-Medium, Poppins" font-weight="500" letter-spacing="0.025em">
            <tspan x="0" y="0">45</tspan>
        </text>
        <text transform="translate(38.594 182.199)" fill="#79828b" font-size="21" font-family="Poppins-Regular, Poppins">
            <tspan x="0" y="0">You’re in top</tspan>
            <tspan y="0" fill="#8d99a4"></tspan>
            <tspan y="0" fill="#10c172">40%</tspan>
        </text>
        <text transform="translate(332.87 182.199)" fill="#10c172" font-size="21" font-family="Poppins-Regular, Poppins">
            <tspan x="0" y="0">10 </tspan>
            <tspan y="0" fill="#79828b">in this month</tspan>
        </text>
        <g transform="translate(38.594 94.876)">
            <circle cx="25.729" cy="25.729" r="25.729" fill="#8097ff" />
            <path d="M12.865,21.334l-7.951,4.4L6.432,16.42,0,9.828,8.889,8.469,12.865,0,16.84,8.469l8.889,1.358L19.3,16.42l1.518,9.309Z" transform="translate(12.865 12.865)" fill="#fff" />
        </g>
        <g transform="translate(332.87 94.876)">
            <circle cx="25.729" cy="25.729" r="25.729" fill="#8097ff" />
            <path d="M20.642,20.9h0L18.321,18.5l7.587-8.044-7.587-8L20.642,0l9.911,10.452L20.643,20.9Zm-10.731,0h0L0,10.452,9.911,0l2.323,2.45-7.588,8L12.234,18.5,9.912,20.9Z" transform="translate(11.256 16.081)" fill="#fff" />
        </g>
    </g>
</svg>